# xmcd
# Copyright (C) 1995-1998 Ti Kan
#
# Track frame offsets:
#       150
#       24275
#       44132
#       65432
#       90949
#       114081
#       138527
#       160486
#       194321
#       217604
#       238851
#       259444
#
# Disc length: 4407 seconds
#
# Revision: 0
# Processed by: cddbd v1.4PL0 Copyright (c) Steve Scherf et al.
# Submitted via: CD-Transfer v1.0
#
DISCID=a311350c
DTITLE=Moonraisers - Human
DYEAR=2003
DGENRE=
TTITLE0=Human
TTITLE1=8 Giants
TTITLE2=Time Run
TTITLE3=Difference
TTITLE4=For Real
TTITLE5=Goes Around
TTITLE6=Congo Square
TTITLE7=Talking
TTITLE8=Slave Station
TTITLE9=So Much Trouble
TTITLE10=Who Can Prove It
TTITLE11=Full Moon
EXTD=
EXTT0=
EXTT1=
EXTT2=
EXTT3=
EXTT4=
EXTT5=
EXTT6=
EXTT7=
EXTT8=
EXTT9=
EXTT10=
EXTT11=
PLAYORDER=
